<svg xmlns="http://www.w3.org/2000/svg" width="425" height="632"><path fill="#170e0e" d="M249.688-.082c2.776-.044 5.536.003 8.312.082l3.203.05c6.882.276 13.251 1.347 19.86 3.2l2.164.583C287.962 5.26 290.775 7.089 294 11c1.38 4.24 1.38 4.24 0 7l2.895.043c7.926.292 13.754 1.058 20.835 4.996 2.196 1.136 2.196 1.136 4.45.785 2.966-1.343 4.085-4.142 5.82-6.824 11.721-10.35 24.841-12.671 39.895-12.131 4.609.287 9.152 1.022 13.703 1.791 3.671.367 6.767-.106 10.402-.66 5.216.494 9.7 1.965 14 5l3 2v2l1.938.75C413 17 413 17 413.75 19.125L414 21h2c.987 1.36 1.958 2.735 2.844 4.164 1.15 1.879 1.15 1.879 2.562 3.734 2.543 3.575 4 6.01 3.531 10.477C424 43 424 43 422 45c-5.062.996-8.341 1.518-13-1l-2.687-1.312c-2.853-2.082-3.16-3.372-4.313-6.688-1.285-2.362-2.625-4.687-3.977-7.012C397 27 397 27 397 25c-4.102-1.015-4.102-1.015-8 0-5.403.634-9.892.288-14.875-1.937-9.3-4.054-17.211-3.633-26.629-.168C344.83 23.99 344.83 23.99 342 26l1.984.043c10.87.568 20.2 4.684 29.016 10.957v2l1.688.625C377 41 377 41 379.238 43.797c2.653 3.258 5.756 5.55 9.262 7.828 11.268 7.477 11.268 7.477 12.438 12L401 67l-2 2c-3.958-.283-6.888-2.718-10-5l-1-2c-2.08-.693-2.08-.693-4.562-1.25-5.298-1.486-9.533-3.834-13.438-7.75v-2l-1.687-.75C366 49 366 49 363.813 47.063c-5.721-4.196-11.82-5.51-18.813-5.063-2.462 5.612-3.528 8.89-2 15l1.004 2.227c4.013 9.48 2.975 18.503 2.328 28.593a99 99 0 0 0-.003 12.775c.452 8.197-1.36 15.091-3.892 22.843l-.976 3.015c-2.482 7.05-5.985 12.6-10.461 18.547q-2.005 2.996-4 6a649 649 0 0 1-5.125 7.375l-1.34 1.941c-1.128 1.598-2.326 3.146-3.535 4.684h-2v2c-13.653 10.863-29.928 14.294-47 14-5.713 24.865-5.713 24.865-10 50l2.422.516c5.7 1.257 11.207 2.633 16.703 4.609 4.768 1.658 9.051 2.303 14.07 2.594 4.154.416 8.068 1.53 12.078 2.66 2.73.622 4.942.92 7.727.621 2.201-2.44 2.201-2.44 4-5h2l.758-1.707c6.957-12.842 20.777-20.58 33.011-27.626 8.45-4.891 16.275-10.17 22.891-17.417C375 189 375 189 377 189v-2c3.834-1.917 8.281-1.501 12.305-.328 1.919.724 3.81 1.52 5.695 2.328.223 1.581.428 3.165.625 4.75l.352 2.672c.026 2.871-.404 4.202-1.977 6.578-2.84 2.194-5.273 3.78-8.719 4.82-4.077 1.466-7.41 3.583-11.031 5.93l-4.273 2.719-2.074 1.324a315 315 0 0 1-7.278 4.457l-2.324 1.39q-2.433 1.438-4.883 2.844c-4.094 2.382-7.86 4.752-11.418 7.891-3 2.625-3 2.625-5 2.625v2l-2.062 1.938c-5.12 4.915-9.072 11.556-11.688 18.125C322 262 322 262 319 264c-4.594.6-8.739.552-13-1.312-2-1.688-2-1.688-4-4.688-3.244-2.133-6.236-2.374-10.062-2.625l-3.473-.23c-4.02-.168-8.008-.138-12.027.015-2.874-.189-4.878-.85-7.438-2.16l-2-3c-4.152-1.793-7.524-2.081-12-2-2.278 10-3.325 19.602-3.654 29.842-.193 5.635-.613 11.14-1.409 16.72-.955 6.856-1.15 13.525-.937 20.438l1.824.867c4.699 2.447 7.993 5.857 11.238 9.945C269.86 334.864 279.406 338.762 291 340c3.224.647 6.107 1.453 8.938 3.188 1.796 3.063 1.54 5.352 1.062 8.812-1.812 2.938-1.812 2.938-5 5-4.314.54-9.033.983-13-1v-2l-2.937-.25c-4.762-.682-8.77-2.666-13.063-4.75l-2.105-.941c-4.884-2.258-9.239-5.06-12.895-9.059v-2l-5-2 .125 2.938c.006 2.847-.358 5.29-1.07 8.042-1.574 6.799-1.818 13.72-2.266 20.665l-.226 3.128-.184 2.826C243 375 243 375 241 378h-2l.883 1.547c2.52 4.469 4.904 8.98 7.18 13.578a187 187 0 0 0 10.984 19.176C259 414 259 414 259 416h2c1.438 2.152 1.438 2.152 3 4.938 1.86 3.686 1.86 3.686 5 6.062.965 1.707.965 1.707 1.938 3.813 1.08 2.253 2.06 4.184 3.562 6.187 3.566 4.754 5.569 10.046 7.313 15.688 4.227 12.99 4.227 12.99 13.5 22.437l1.988.945C299 477 299 477 301 480c.125 2.688.125 2.688 0 5l4 1c1.412 8.763 1.412 8.763.063 12.813-2.396 2.54-4.879 4.114-7.88 5.87-4.828 2.912-9.22 6.466-13.495 10.13C281 517 281 517 278 518a129 129 0 0 0-5 5 741 741 0 0 1-4.187 4.313l-2.043 2.113C265 531 265 531 263 531v2c-1.68 1.621-1.68 1.621-3.875 3.438-2.587 2.146-4.237 3.73-6.125 6.562h-2l-.773 1.742c-1.775 3.267-4.254 5.736-6.766 8.453-1.67 1.677-1.67 1.677-1.461 3.805 4.808 2.068 9.47 4.01 14.625 5 4.601.935 8.31 2.689 12.375 5l2.547 1.418c4.754 2.736 8.978 5.296 12.453 9.582v3h2c5.338 7.34 9.015 14.763 8 24-1.331 7.6-4.178 12.924-10 18-6.53 4.081-13.145 6.078-20.687 7.313l-2.889.494c-19.482 3.134-19.482 3.134-26.217-.182-3.737-2.751-5.34-6.157-6.207-10.625-.07-1.899-.084-3.8-.062-5.7l.025-3.39.037-3.597c1.572-23.17 1.572-23.17-4.547-44.356-2.166-2.917-1.991-4.809-1.492-8.316 2.313-5.88 7.592-10.291 12.039-14.641l2.723-2.793C239 535 239 535 241.187 533.937c1.953-.78 1.953-.78 2.657-2.687 5.09-9.906 15.871-18.016 24.156-25.25l1.844-1.625C273.756 501 273.756 501 276 501l.188-1.812c1.136-3.06 2.985-3.738 5.812-5.188-1.11-6.312-2.963-11.389-6-17-5.9-11.442-5.9-11.442-7.375-15.812-3.543-10.02-9.545-19.534-15.625-28.188l-2.062-3.187c-1.906-2.875-1.906-2.875-4.282-5.532-2.78-3.31-4.936-6.857-7.094-10.594-2.96-5.045-5.998-9.972-9.37-14.757-2.04-3.302-3.192-6.032-3.192-9.93-4.742 2.604-9.11 5.41-13.375 8.75l-1.715 1.326a140 140 0 0 0-9.347 7.986c-8.521 7.7-18.515 13.08-28.787 18.048-5.044 2.458-9.763 5.243-14.444 8.347a98 98 0 0 1-5.027 3.102c-3.958 2.475-5.072 5.507-6.18 9.941-1.354 4.211-2.5 5.955-6.125 8.5-4.838 1.018-8.15.455-12.5-1.875C127 451 127 451 126 449l-1.875-.75c-3.022-1.777-3.681-4.112-5.125-7.25a496 496 0 0 0-3-4l-1-3-2-1v-4l-2.375-.875C108 427 108 427 106 425c-2.63-.426-2.63-.426-5.562-.562-5.34-.34-5.34-.34-6.438-1.438a312 312 0 0 0-8.434-1.11C83 421 83 421 81.652 418.423L81 416h-3l-1-3-2.312-1.25c-2.728-1.776-3.31-2.551-4.75-5.312-1.627-3.345-1.627-3.345-3.688-4.938-3.554-.79-6.671-.096-10.25.5l.77 1.871c5.855 14.408 10.05 25.779 3.867 40.82-2.574 5.203-5.73 10.005-9.637 14.309h-2v2h-2v2h-2v2c-7.073 5.508-16.253 9.738-25.375 8.813-7.604-1.705-11.125-4.456-15.812-10.75C-.428 455.167-1.243 443.635 1 435c1.323-3.276 2.991-6.1 5-9l1.465-2.129c4.784-6.165 11.86-11.143 19.758-12.156 2.789.243 4.59 1.139 6.777 2.848 1.523 3.713.718 6.52 0 10.437l-2.047.559c-5.36 1.707-5.36 1.707-9.473 5.359-2.806 5.939-4.486 12.978-2.898 19.457 1.227 3.591 1.227 3.591 3.418 6.625 5.75-.225 9.142-1.856 13-6 7.22-8.56 9.935-15.685 10-27l-1-1a100 100 0 0 1 0-5h-2l-.062-1.812c-.832-2.612-.832-2.612-4.438-3.813L35 411c-1.348-2.695-1.28-4.93-1.375-7.937l-.148-3.215C34 397 34 397 36.21 395.184c2.63-1.117 4.968-1.78 7.789-2.184l.227-2.047.398-2.703.352-2.672c1.5-3.782 3.413-4.8 7.023-6.578 2.824-.26 5.044-.317 7.813-.062l2.133.17c5.877.609 10.558 2.01 15.054 5.892 2.25 3 2.25 3 4 6l2.563 2.563C86 396 86 396 87.437 398.5c2.033 3.253 4.189 5.685 7.563 7.5 3.322.723 6.609.872 10 1 9.19.494 14.66 2.955 21 10 3 3.62 3 3.62 3 6l3 1c1.688 2.063 1.688 2.063 3 4 3.8-1.76 7.25-4.032 10.75-6.312l3.77-2.434q2.967-1.92 5.93-3.852c4.055-2.605 8.08-4.552 12.55-6.402 4.916-2.275 9.626-4.596 14-7.812 3-2.188 3-2.188 5-2.188v-2c1.906-1.734 1.906-1.734 4.5-3.75l2.762-2.164a348 348 0 0 1 7.05-5.211c2.56-1.882 4.576-3.77 6.563-6.25L210 377h2l.852-1.738a117 117 0 0 1 3.523-6.45l1.21-2.105C219 365 219 365 221.063 364.527L223 364c1.07-1.911 1.07-1.911 1.625-4.25 1.18-4.138 2.564-8.04 4.41-11.934 2.843-6.236 3.524-11.89 3.79-18.714.175-3.102.175-3.102.757-5.329.635-1.998.635-1.998-.582-4.773-1.75-1.253-1.75-1.253-3.937-2.312a135 135 0 0 1-10-5.813c-4.851-2.936-9.614-4.44-15.063-5.875-22.728-7.017-22.728-7.017-30-16-.687-6.101 1.57-9.62 4.848-14.574 2.815-3.173 5.233-4.085 9.332-4.863L190 269l1-3c1.566-1.543 1.566-1.543 3.563-3.187 3.83-3.231 7.318-6.682 10.773-10.31C207 251 207 251 209 251l2-4h2v-2c1.68-1.621 1.68-1.621 3.875-3.437 2.587-2.147 4.237-3.73 6.125-6.563h2v-2c1.934-1.691 1.934-1.691 4.438-3.562 2.889-2.093 2.889-2.093 5.562-4.438 2.655-.455 5.322-.702 8-1 2.063-4.339 2.519-8.59 2.938-13.312.738-7.526 1.938-14.834 3.476-22.235.549-3.233.696-6.183.586-9.453l-2.832-.883q-3.064-.955-6.127-1.916-6.019-1.89-12.053-3.728L224 170.937l-2.35-.705c-5.898-1.827-12.209-3.79-16.65-8.232.23-2.384.78-3.715 2.246-5.61 2.314-1.834 3.705-1.76 6.629-1.702l2.555.011c2.864.335 4.902 1.195 7.57 2.301 3.336 1.043 6.699 1.989 10.063 2.938l2.835.8q4.05 1.138 8.102 2.262l2.086.586c1.656.462 3.316.908 4.976 1.351l2.66.715c2.45.374 3.917-.022 6.278-.652l2.938 1.063c5.652 1.795 11.413.125 17.062-1.063l2.676-.562c6.073-1.55 10.817-4.396 15.976-7.915C302 155 302 155 305 154l.875-2.75c1.335-3.858 3.045-5.62 6.125-8.25l3-1v-2l-3.93.168c-5.127-.005-9.388-1.17-14.195-2.856l-2.3-.74c-5.82-1.978-11.559-4.548-15.075-9.822-1.206-6.634.283-12.912 3.5-18.75 2.387-1.893 4.03-2.004 7.063-2.437C293 106 293 106 294.75 108c1.512 3.628 2.357 7.173 3.25 11 2.086 2.086 7.33 1.248 10.277 1.254 3.91.146 5.595.641 8.657 3.148 1.881 2.366 2.738 3.643 3.066 6.598h3v-5h2l.367-1.977c.726-3.787 1.43-7.437 2.695-11.085 5.978-18.731 3.773-45.445-4.758-62.947-4.393-8.472-9.258-14.756-18.226-18.53-2.437-.54-3.786-.448-6.078.539l-1 3c-3.736 2.028-6.808 2.633-11 2a103 103 0 0 1-4.875-2.937C277.599 30.197 274.339 28.918 269 29l-2.297-.031c-7.342.28-13.66 2.905-19.703 7.031-1.967 2.33-2.855 4.136-4 7h-8l-2-4c-10.615 6.693-17.87 14.732-24.383 25.402-2.708 4.35-5.809 8.421-9.082 12.362-4.13 5.128-6.335 10.19-8.347 16.424l-.905 2.654c-2.668 7.945-5.823 17.507-2.19 25.592 1.513 2.32 3.138 4.435 4.907 6.566l1.71 2.23c3.762 4.672 6.73 6.672 12.29 8.77 2.5 1.875 2.5 1.875 4 4 0 3.069-.55 4.457-2.5 6.813-4.282 2.033-9.103 1.995-13.586.484-2.555-1.731-3.56-3.668-5.039-6.36-1.797-3.623-1.797-3.623-4.875-5.937v-2h-2l-2-5h-2c-3.585-5.435-4.741-9.535-5-16l-.191-2.562c-.3-6.662 1.041-12.114 3.218-18.395.977-3.055 1.692-5.846 1.973-9.043l-2-3c.375-3.187.375-3.187 1-6l-7-1-.375 3.625c-1.1 8.85-1.1 8.85-3.625 11.375-2.375.375-2.375.375-5 0-2.839-3.447-3.353-6.674-4-11-16.021 5.902-29.143 13.543-40 27l-2.125 2.5c-1.793 2.391-3.217 4.86-4.684 7.458-1.745 2.992-3.63 5.89-5.504 8.803-4.474 6.952-8.708 13.842-12.25 21.325-2.332 4.729-5.034 9.24-7.703 13.785A56.5 56.5 0 0 0 82 168l2 1.063c2 1.937 2 1.937 2.438 5.5L86 178c-4.067 2.712-7.155 2.579-12 3l-4 12c-4 0-4 0-5.555-1.215-2.072-2.703-3.494-4.579-3.351-8.078A70 70 0 0 1 63 177c1.482-5.927 2.023-11.646-.441-17.316-1.626-3.842-2.193-7.125-2.746-11.246-1.067-6.808-3.359-11.81-6.962-17.63-2.817-4.58-4.411-8.46-4.851-13.808l-.207-2.418C47.262 101.886 53.304 88.895 61 79h2v-2h2l.656-2.137c1.671-3.56 4.058-5.98 6.844-8.675l1.512-1.522C77.732 61 77.732 61 80 61l.727-1.738c4.368-7.76 13.762-13.258 20.902-18.414 2.44-1.629 2.44-1.629 3.371-3.848h2v-2c3.551-2.854 7.346-5.33 11.166-7.809 1.723-1.119 3.43-2.263 5.135-3.41 6.841-4.21 11.546-5.657 19.465-3.87C148.143 21.721 153.084 24.182 158 27v2l1.625.25C162 30 162 30 164.938 32.125c2.797 2.087 2.797 2.087 5.406 1.844 3.643-1.329 5.684-3.787 8.219-6.594 8.386-8.78 17.608-13.44 29.113-17.234 3.372-1.109 3.372-1.109 6.73-2.618 11.47-4.862 22.856-7.226 35.281-7.605M242 14l-1 2h2zm-56.125 22.973C184.097 38.905 182.537 40.87 181 43l-2.008 2.77c-3.873 5.066-3.873 5.066-4.68 11.062L175 59c2.418.108 4.83.187 7.25.25l2.066.102c3.283.063 5.273-.061 7.985-1.98 1.968-2.748 3.298-5.456 4.637-8.56 6.87-15.301 6.87-15.301 14.19-21.238 2.312-1.944 4.1-4.137 5.872-6.574-11.313 0-23.094 8.517-31.125 15.973M109.07 51.238c-2.225 1.894-4.56 3.276-7.07 4.762a283 283 0 0 0-5 5l-3.062 2.5c-2.933 2.333-2.933 2.333-4.876 4.938-2.267 2.816-4.75 4.895-7.574 7.132C79.728 77.04 79.728 77.04 79 80c2.1.215 2.1.215 3.625-1.375C84.215 77.1 84.215 77.1 84 75h3c2.23-1.813 2.23-1.813 4-4v-2l1.75-.812C95.056 66.97 97.02 65.697 99 64v-2l2.16-.723c3.288-1.479 5.552-3.36 8.278-5.715 3.698-3.193 7.12-5.52 11.562-7.562l2.746-1.316c9.072-4.2 16.245-6.01 26.254-5.684-1.732-3.801-3.149-5.203-7-7-12.949-3.735-25.243 9.096-33.93 17.238M112 69l-1.776 1.275C97.67 79.304 86.612 89.4 79 103l-1.2 1.922c-5.666 9.185-8.15 20.37-6.8 31.078 1.386 2.572 2.846 3.95 5 6l1 3 3-1c.761-1.912 1.51-3.83 2.178-5.776 1.299-3.515 3.139-6.674 5.01-9.911l1.188-2.084a495 495 0 0 1 9.858-16.397 177 177 0 0 0 3.094-5.133c2.668-4.58 5.815-8.054 9.656-11.703 1.901-1.882 3.493-3.831 5.141-5.933 6.983-8.08 17.158-13.093 26.965-16.868 4.85-1.992 9.365-4.592 13.91-7.195-.788-3.798-1.973-5.492-5-8-15.482-4.882-28.223 5.361-40 14M78 80l-3 3 1 2 3-3zm141.236 182.54a463 463 0 0 0-4.412 4.593c-1.9 1.987-3.764 3.644-5.906 5.414-2.802 2.356-5.014 4.723-7.293 7.578l-2.086 2.57c-1.817 2.259-1.817 2.259-1.539 5.305l2.781.734c6.816 1.862 12.971 3.919 19.219 7.266l3.063 1c2.513.856 4.372 1.777 6.625 3.125 3.113 2.121 3.113 2.121 6.312 1.875l.168-3.928q.312-7.244.632-14.486.136-3.13.27-6.26.193-4.508.395-9.017l.117-2.807c.222-4.899.627-9.662 1.418-14.502-8.02 0-14.29 6.097-19.764 11.54M241 571c-1.88 1.88-1.13 5.103-1.133 7.605l-.003 2.048q0 2.163.006 4.325c.005 2.155 0 4.31-.007 6.465-.103 13.324-.103 13.324 1.137 26.557 1.95 2.385 1.95 2.385 5.555 2.266 4.732-.124 9.04-1.21 13.57-2.516l2.34-.621c5.694-1.6 10.407-3.718 14.41-8.254 2.188-5.59 1.98-11.483-.375-17L275 589h-2l-.25-1.875c-.543-2.279-.543-2.279-2.625-3.187-.701-.31-1.402-.62-2.125-.938a102 102 0 0 1-3-3c-3.97-3.97-7.965-5.02-13.281-6.29-2.719-.71-2.719-.71-5.375-1.796-2.39-1.096-2.39-1.096-5.344-.914"/><path fill="#201516" d="M149.484 22.496A147 147 0 0 1 158 27v2l1.938.375L162 30l1 2-7-2v-3h-5v-2l-1.625.5c-2.834.597-5.487.566-8.375.5l7 2-1 4 2 1c1.374 2.99 2.197 5.79 3 9h-15l2-2c2.602.023 2.602.023 5.625.375l3.04.336L150 41c-2.635-3.709-4.494-5.952-9-7-13.072.726-22.887 9.76-32.027 18.336-1.925 1.623-3.72 2.575-5.973 3.664a141 141 0 0 0-5 5 140 140 0 0 1-5 5h-2l-1 3h-2l-1 3c-1.629 1.387-1.629 1.387-3.562 2.688l-1.942 1.324L80 77c1.135-3.842 2.126-7.126 5-10h4v-2l2-1 .875-3.312C93 57 93 57 95.188 54.875L97 53c-.14-2.707-.14-2.707-1-5l-2.937 2.313-1.653 1.3C89.728 53.057 89.728 53.057 89 56l-4-1c5.138-5.536 10.562-10.044 16.777-14.336 2.314-1.473 2.314-1.473 3.223-3.664h2v-2c3.551-2.854 7.346-5.33 11.166-7.809 1.723-1.119 3.43-2.263 5.135-3.41 9.419-5.796 16.124-5.604 26.183-1.285"/><path fill="#221919" d="M146 69v2h-3v2l4 1v3c1.282.09 1.282.09 2.59.184l3.347.254c1.103.08 2.205.162 3.34.246C159 78 159 78 160 79c.04 1.666.043 3.334 0 5l3-1c.622-1.946.622-1.946.875-4.25.886-4.79 2.392-6.704 6.125-9.75l2 2 3.563 1L179 73c1.262 2.525 1.099 4.312 1.063 7.125l-.028 2.758L180 85c-1.52-1.3-1.52-1.3-3-3 .313-3.187.313-3.187 1-6l-7-1-.375 3.625c-1.1 8.85-1.1 8.85-3.625 11.375-2.375.375-2.375.375-5 0-2.839-3.447-3.353-6.674-4-11-16.021 5.902-29.143 13.543-40 27l-2.125 2.5c-1.543 2.057-2.762 4.011-4 6.25C110 118 110 118 108 119c-.838-2.513-1.028-3.876-.437-6.5.529-3.024-.16-3.858-1.563-6.5-.125-2.75-.125-2.75 0-5h-3q2.145-2.505 4.297-5.004a234 234 0 0 0 3.156-3.773C118.348 82.658 132.76 69 146 69"/><path fill="#281d1b" d="m341 24 3 1-2 1 1.984.043c10.87.568 20.2 4.684 29.016 10.957v2l1.688.625C377 41 377 41 379.238 43.797c2.653 3.258 5.756 5.55 9.262 7.828 11.268 7.477 11.268 7.477 12.438 12L401 67l-2 2c-3.958-.283-6.888-2.718-10-5l-1-2c-2.08-.693-2.08-.693-4.562-1.25-5.298-1.486-9.533-3.834-13.438-7.75v-2l-1.687-.75C366 49 366 49 363.813 47.063c-5.721-4.196-11.82-5.51-18.813-5.063l-2 6h-1v-7c5.374-3.583 8.537-4.636 15-4 2.375.938 2.375.938 4 2l2 1 1-7-2.23-.367-2.957-.508-2.918-.492C353 31 353 31 350.438 29.969c-2.497-.992-4.585-1.355-7.25-1.594l-2.395-.227L339 28v-3z"/><path fill="#190e0c" d="m213.875 154.688 2.555.011c2.864.335 4.9 1.198 7.57 2.301 3.378 1.041 6.783 1.985 10.188 2.938Q239.596 161.46 245 163l2.834.79 2.717.776 2.446.69C255 166 255 166 257 168h-2v2h-3l1 3c.4 8.4.4 8.4-2 12l-1-6-2.832-.883q-3.064-.955-6.127-1.916-6.019-1.89-12.053-3.728L224 170.937l-2.35-.705c-5.898-1.827-12.209-3.79-16.65-8.232.23-2.384.78-3.715 2.246-5.61 2.314-1.834 3.705-1.76 6.629-1.702"/><path fill="#261b1c" d="M189 95c1.397 2.794.51 4-.437 6.938-1.818 6.498-3.379 13.09-.461 19.472 1.5 2.34 3.123 4.451 4.898 6.59l1.71 2.23c3.762 4.672 6.73 6.672 12.29 8.77 2.5 1.875 2.5 1.875 4 4 0 3.069-.55 4.457-2.5 6.813-4.282 2.033-9.103 1.995-13.586.484-2.555-1.731-3.56-3.668-5.039-6.36-1.797-3.623-1.797-3.623-4.875-5.937v-2h-2l-2-5h-2c-3.378-5.121-5.364-9.745-5-16l2-3c.75 3.663 1.238 6.424 0 10h2l1-2h3c1.85-6.013 2.91-12 3.855-18.21.318-1.942.725-3.868 1.145-5.79z"/><path fill="#221718" d="m225 6 2 1v2h-2v2h2v4l2.52-.984c3.875-1.131 7.136-1.282 11.167-1.266l3.95-.016C248 13 248 13 251 15c-2.991 2.991-6.53 2.603-10.562 2.938-6.578.627-12.248 1.65-18.438 4.062-1.658.372-3.322.73-5 1l1 4-4-1 1 3-4-2 5-5c-5.047 1.365-9.815 2.771-14.437 5.25C198 29 198 29 195 28l1-2 3 1-1-3 2-1-2-2 5-1v-2l-4-1 1-1-3-2 2.816-.988C205.96 10.84 212.043 8.647 218 6c3.167-1.056 3.964-.98 7 0m17 8-1 2h2z"/><path fill="#120c0b" d="M262.184 67.727c4.25-.192 6.206-.168 9.753 2.398C274.144 73.2 275.33 75.273 276 79c-.915 5.124-2.716 8.965-6 13-3.813 2.506-7.478 2.179-11.84 1.523-3.393-.822-5.01-1.75-7.16-4.523-1.62-6.438.899-11.997 3.516-17.812C256 69 256 69 257.895 68.21a175 175 0 0 0 4.289-.484"/><path fill="#221b1c" d="m97 64 2 1-3 6 4-1v3h-2v4h-2l-1-2-1 2h-2l-1-3-2-1 2 6 4-1v3l2 1-1.941 1.8C87.298 91.239 81.487 99.235 77 109c-1.178-3.68-1-7.164-1-11l-1-3h4v-2h-4v-4h-2l-.25 2.188C71.852 94.553 70.289 96.416 68 99l-3-1v-3h2l1-6h3l.313-1.625c.868-3 2.243-5.613 3.687-8.375h3v-2h2l1 1 3-1v-2h3l2-4h2v-2a159 159 0 0 1 6-5M78 80l-3 3 1 2 3-3z"/><path fill="#211718" d="M381.598 6.66c3.672.367 6.766-.107 10.402-.66 2.582.234 2.582.234 4.813.75l2.269.484C401 8 401 8 403 11l-1.941-.437C392.44 8.713 384.525 8.354 376 11l-1 2 2 1-5 1-1 6h5l1 2c-3.602-.441-6.868-.955-10.312-2.125-7.919-1.879-15.25.268-22.688 3.125v-3l2-1c1.134-2.017 1.134-2.017 2-4h2v-2h-3v-2h-2v-2l10-2-6-1V6c10.575-2.532 22.01-1.13 32.598.66"/><path fill="#150a0b" d="m397 10-2 3c-.167 2.625-.167 2.625 0 5h-2l-1 3c-3.728 2.291-7.29 3.037-11.625 2.813A85 85 0 0 1 371 21v-6l1.938-.812C375.33 13.113 375.33 13.113 376 10c15.531-3.5 15.531-3.5 21 0"/><path fill="#170d0e" d="M192 133c6.77 1.693 14.83 4.016 19 10 0 3.069-.55 4.457-2.5 6.813-3.738 1.775-7.43 1.739-11.5 1.187-4.223-1.677-5.818-4.013-8-8-.75-3.875-.75-3.875-1-7l3-1z"/><path fill="#2c2020" d="M227 570h2l2 28h2l-1-9h2l1 3c-.095-.77-.19-1.542-.29-2.336-.11-1.003-.22-2.006-.335-3.039l-.352-3.023L234 581l2-2c1.607 3.215 1.057 6.436 1 10h2v-19h5l-3 2c-.436 3.07-.436 3.07-.328 6.703l.006 2.043q.01 2.154.04 4.308c.031 2.146.042 4.292.048 6.438.05 8.874.483 17.664 1.234 26.508l7 2v1c-3.375.125-3.375.125-7 0-2.403-2.403-2.34-3.266-2.633-6.57l-.254-2.715-.238-2.84-.262-2.863q-.318-3.505-.613-7.012l-1 4h-2l-1 2v-3h-2v3h-2v8l-2-1 .035-3.348c.09-12.909-.381-25.76-1.035-38.652"/><path fill="#170c11" d="M263 196c1.04 3.12.996 3.93.293 6.992l-.526 2.37-.58 2.513c-1.701 7.684-3.123 15.324-4.187 23.125l2.598.586c5.849 1.332 11.66 2.678 17.402 4.414v1c-5.75.125-5.75.125-8-1a95 95 0 0 0-5.125-.062l-2.758.027L260 236v-2h-3l-2-5h-5l1-8h-6l2-20h1v12l5.957-.098C256 213 256 213 259 214l.367-2.414c1.665-10.524 1.665-10.524 3.633-15.586"/><path fill="#201518" d="m131 44-1 5c-3.058.544-5.888 1-9 1-2.15.95-2.15.95-4 2l7-1 1 2 1-2h5l-1 2 9 1c-2.424 1.616-4.35 2.61-7 3.688-4.882 2.112-9.196 4.883-13.617 7.824C116 67 116 67 113 68v-2h-2v-2h4l-.5-1.687c-.54-2.5-.57-4.763-.5-7.313l-5 1c5.188-6.082 13.91-12 22-12"/><path fill="#201415" d="M254 408c2.252 2.688 3.882 4.646 5 8h2c1.438 2.152 1.438 2.152 3 4.938 1.86 3.686 1.86 3.686 5 6.062.852 1.848.852 1.848 1.625 4.063.26.733.52 1.466.79 2.222.192.566.386 1.132.585 1.715h-2a132 132 0 0 1-3-5c-2.033-2.163-2.033-2.163-5-4-.687-2.125-.687-2.125-1-4l-4 1 2 7h-2v7c-3.27-3.037-5.548-6.285-8-10a181 181 0 0 0-2.625-3.062c-2.154-2.664-3.332-4.713-4.375-7.938l3 1 2 5 3 1 1-10 1 2 2-1z"/><path fill="#1e1313" d="m130 78 1 2-2 1 2 1v4h-2l.188 2.188c-.223 3.34-1.316 5.082-3.188 7.812l-4-1v-3l-2 1 1 5-3 1v2h-2l-2-2-4 2c0-2 0-2 1.5-3.625L113 96l-3 2h-3c1.332-2.9 2.833-5.169 4.938-7.562l1.527-1.754L115 87l1.523-1.672c2.005-1.803 3.852-1.973 6.477-2.328v2h2v-3h2v-3z"/><path fill="#271c1b" d="m213.875 154.688 2.555.011c2.845.333 4.929 1.199 7.57 2.301 2.6.738 5.196 1.449 7.813 2.125A1903.535 1903.535 0 0 0 239 161l-4.001 1v2h-2v-3l-14-2v2h3v4h-2v3h4v2c-6.932-1.22-13.885-2.885-19-8 .23-2.384.78-3.715 2.246-5.61 2.314-1.834 3.705-1.76 6.629-1.702"/><path fill="#211617" d="M291 164v1l9-1-1 6h10c-3.63 3.17-7 5.047-11.5 6.75l-3.344 1.297c-2.938.887-5.118 1.157-8.156.953l4-1v-5l-4 2 1-5-2-1 1-1-8-1c2.626-1.75 4.107-2.453 7.063-3.187l2.097-.543C289 163 289 163 291 164"/><path fill="#150b0b" d="M331 124v3h-2v6l1.875-.5C333 132 333 132 335 132l1-7h1c.215 6.226-.126 10.904-3.437 16.375L332 143h-3v3h-2l-1-3c-2-1.209-2-1.209-4-2v-2l-5-1v-2h6l-1-5 2-1c.656-2.527.656-2.527 1-5 3-1 3-1 6-1"/><path fill="#150a0a" d="m258 620 2 3c-.875 3.688-.875 3.688-2 7-4.291.813-8.383 1.162-12.75 1.188l-3.422.042C239 631 239 631 237 629h5l1-7c5.474-2.401 9.012-3.677 15-2"/><path fill="#1d1213" d="m106 99 2 2h-2l.375 3.938c.07.73.14 1.461.21 2.214L107 109l2 1-1 9h-5l-1 4c-1.125-3.75-1.125-3.75 0-6h-2l-1 3v-3c-1.975.348-1.975.348-4 1l-1 2c-.352-4.282.563-6.483 2.875-10.062 2.245-3.5 2.245-3.5 4.188-7.168 1.217-2.3 2.569-2.823 4.937-3.77"/><path fill="#2c2021" d="m84 170 2 1c.188 3.375.188 3.375 0 7-4.067 2.712-7.155 2.579-12 3l-4 12c-4 0-4 0-5.555-1.215-2.072-2.703-3.494-4.579-3.351-8.078.52-2.287 1.173-4.48 1.906-6.707.34-1.665.677-3.331 1-5h1l1 8 5 2 .875-1.937C73 178 73 178 75 177c2.672-.134 5.323-.043 8 0v-3h2z"/><path fill="#1b1111" d="m96 48 .375 2.438L97 53l2 1-2.375 1.063C93.165 57.617 93.055 59.934 92 64l-3 1v2c-2.875.625-2.875.625-6 1l-2-2 4-4-2.875 1.563L79 65l-2-1c1.805-2.867 3.632-5.568 6-8 3.375-.5 3.375-.5 6 0l.25-1.75C90.338 50.986 92.341 48 96 48"/><path fill="#271b1a" d="m245 559 2.938.875c2.816.818 5.621 1.44 8.5 2 4.643 1.02 8.444 2.788 12.562 5.125l2.582 1.418c4.689 2.67 8.419 4.947 11.418 9.582l-1.812-.937c-2.278-1.165-2.278-1.165-5.188-2.063l-1-2h-15v3c-1.814-.28-3.626-.575-5.437-.875l-3.06-.492L249 574l-1-2 2.813.563c3.2.678 3.2.678 6.187-.563l1-2h2c-.482-2.504-.482-2.504-2-5-3.535-1.38-3.535-1.38-7-2l-1 2v-3l-5-1z"/><path fill="#231919" d="m113 96-1 3h-2v2l5-3c2.463 3.695 2.39 5.633 2 10-1.25 1.5-1.25 1.5-3 3a91 91 0 0 0-2.062 3.625C110 118 110 118 108 119c-.838-2.513-1.028-3.876-.437-6.5.529-3.024-.16-3.858-1.563-6.5-.125-2.75-.125-2.75 0-5h-3c3.172-3.512 5.253-5 10-5"/><path fill="#2e2426" d="m238.361 12.727 2.077.023 2.064-.023c3.712.014 5.334.164 8.498 2.273-2.991 2.991-6.53 2.603-10.562 2.938-6.578.627-12.248 1.65-18.438 4.062-1.658.372-3.322.73-5 1l1 4-4-1 1 3-4-2 5-5-2-1v-2l3.648-.805 4.727-1.07 2.406-.527 2.305-.528 2.126-.476c8.62-2.865 8.62-2.865 9.15-2.867M242 14l-1 2h2z"/><path fill="#170b0d" d="M238 598h1c1.238 6.656 1.091 13.247 1 20h-1l-1-5-2 4-2-2c-.544 3.058-1 5.888-1 9h2v3h-2c-4.272-7.43-4.314-13.824-3-22h2v-3l5 1z"/><path fill="#291f20" d="m108 47 4 2c-2.881 3.041-5.29 5.145-9 7a141 141 0 0 0-5 5 140 140 0 0 1-5 5h-2l-1 3h-2l-1 3c-1.629 1.387-1.629 1.387-3.562 2.688l-1.942 1.324L80 77c1.135-3.842 2.126-7.126 5-10h4v-2l2-1 .938-3.375C93.364 55.757 93.364 55.757 96 54c4.415-1.292 4.415-1.292 7 0l1-4h3z"/><path fill="#160d0c" d="M242 164c3.699.888 7.346 1.946 11 3-.812 3.438-.812 3.438-2 7-5.684 1.895-10.498 1.147-16-1 .188-1.812.188-1.812 1-4 2.5-1.625 2.5-1.625 5-3z"/><path fill="#1e1415" d="m126.75 26.938 2.422.027L131 27v2h8v2l-10 1-1 4-6 1 1-3-9-1 2-3h2v-2c2.995-.872 5.636-1.108 8.75-1.062"/><path fill="#3e2f2b" d="M395 24h4c2.034 3.73 3 5.67 3 10l3 1 .852 2.473c.902 2.756.902 2.756 3.609 3.523l2.914.441 2.898.497c3.066.287 3.066.287 6.727-1.934l-1-10c2 1 2 1 3.188 2.563 1.252 3.757.563 6.554-.188 10.437-2.878 2.878-6.091 2.94-10 3-2.687-.75-2.687-.75-5-2l-2.687-1.312c-2.853-2.082-3.16-3.372-4.313-6.688-1.285-2.362-2.625-4.687-3.977-7.012C397 27 397 27 397 25z"/><path fill="#251b1c" d="m143 27 5 1-1 4 2 1c1.374 2.99 2.197 5.79 3 9h-15l2-2c2.602.023 2.602.023 5.625.375l3.04.336L150 41c-2.635-3.709-4.494-5.952-9-7-3.475.258-3.475.258-7 1l-3.437.563L128 36l1-4c1.013-.09 1.013-.09 2.047-.184l2.703-.253 2.672-.247A44 44 0 0 0 143 30z"/><path fill="#1e1311" d="m173 407 2 1-2.375.25c-2.722.447-2.722.447-3.625 2.5l-1 2.25c-3.122 3.628-5.152 5.607-10 6h-2v2l-2.375.875c-2.722.974-2.722.974-4.625 3.125-3.625.125-3.625.125-7 0 6.835-7.289 16.876-12.283 26-16l2.813-1.25z"/><path fill="#352928" d="M289.938 105.563C293 106 293 106 294.75 108c1.512 3.628 2.357 7.173 3.25 11 2.086 2.086 7.33 1.248 10.277 1.254 3.91.146 5.595.641 8.657 3.148 1.881 2.366 2.738 3.643 3.066 6.598h3v-5h2c.188 2.375.188 2.375 0 5-3 2-3 2-6 2l-.812-2.375c-1.036-2.906-1.036-2.906-4.188-4.625v-2h-6l1 3h-2v-3l-1.863.14c-6.576.294-6.576.294-9.074-1.64-1.462-3.44-2.24-6.852-3.063-10.5l-1-2a109 109 0 0 0-7-1c2-2 2-2 4.938-2.437"/><path fill="#312523" d="M245 164q2.44.425 4.875.875l2.742.492C255 166 255 166 257 168h-2v2l-3-1 1-2-2.875.188L247 167zm-21 6 11 1v2q3.156.251 6.313.5l3.55.281A88 88 0 0 0 251 174l1-4c1.51 4.527 1.774 9.064 0 13.5l-1 1.5-1-6c-8.652-2.716-17.303-5.429-26-8z"/><path fill="#3e302e" d="M263 196c1.04 3.12.996 3.93.293 6.992l-.526 2.37-.58 2.513c-1.701 7.684-3.123 15.324-4.187 23.125l2.598.586c5.849 1.332 11.66 2.678 17.402 4.414v1c-5.75.125-5.75.125-8-1a95 95 0 0 0-5.125-.062l-2.758.027L260 236v-2h-3c-.425-9.477.794-17.806 3-27a693 693 0 0 0 1.57-8.207C262 197 262 197 263 196"/><path fill="#2c2121" d="m127 51 4 1-1 1 9 1c-2.424 1.616-4.35 2.61-7 3.688-4.882 2.112-9.196 4.883-13.617 7.824C116 67 116 67 113 68v-2h-2v-2h4v-2h6v-3h3l1-4h2z"/><path fill="#231919" d="m233 38-2.187 1.723A200 200 0 0 0 213 56v-2l-2-1 2-2c.167-3.083.167-3.083 0-6h2v2c.835-.96.835-.96 1.688-1.937 2.533-2.26 3.995-2.694 7.312-3.063l.375-1.937L225 38c2.862-1.43 4.934-.6 8 0"/><path fill="#3f2f2f" d="M390 53c4.166 2.616 7.826 5.173 11 9 .438 2.688.438 2.688 0 5l-2 2c-3.96-.283-6.918-2.671-10-5l-1-3 6 1c-.27-2.437-.27-2.437-1-5l-3-2z"/><path fill="#382c2b" d="M255 246c5.789-.207 10.43.408 16 2l-1 3h8v2l2.71-.035c7.172-.054 14.175.117 21.29 1.035v3l-2.316-.437c-7.622-1.321-14.656-1.7-22.372-1.438-3.33-.126-5.396-.542-8.312-2.125l-2-3c-2.871-1.021-2.871-1.021-6.125-1.687l-3.32-.762L255 247z"/><path fill="#241918" d="M260 24q4.376.928 8.75 1.875l2.5.527 2.422.528 2.222.476c2.21.623 4.088 1.505 6.106 2.594v2l-1.687-.656c-9.364-3.417-17.922-3.196-27.106.902A211 211 0 0 0 246 36l-1-4 5 1v-2h3l1-4h6z"/><path fill="#281b1e" d="m135 85 1 2 2 1-1.54 1.137c-6.356 4.726-12.245 9.334-17.26 15.508L118 106h-1c.256-2.343.593-4.678 1-7l2-1-1-6h3v3l4 1 .313-1.937L127 92l3-1v-3c2.5-1.687 2.5-1.687 5-3"/><path fill="#392e32" d="M78 77h2l-3 6 2-1c-.25 2.375-.25 2.375-1 5l-4 2a101 101 0 0 0-3 6 81 81 0 0 1-3 4l-3-1v-3h2l1-6h3l.313-1.625c.868-3 2.243-5.613 3.687-8.375h3z"/><path fill="#302624" d="m117 28 1 2-3 2 8 2v2h5c-3.126 3.394-5.565 5.606-10 7l1-8h-2v3h-2v-2h-2v-2l-4 1c2.578-2.648 4.916-4.944 8-7"/><path fill="#392921" d="M115 433h5l1 5 2-3v11h3v-2l5 2c-1 3-1 3-2 4l4 2v2c-3.653-1.25-4.78-1.671-7-5l-1.937-.812c-2.992-1.723-3.644-4.102-5.063-7.188l-1.625-2.125c-1.45-1.978-1.947-3.48-2.375-5.875"/><path fill="#1c130f" d="m333 13 1 2-1 2 2 1-2.937.375L329 19l-1 2 4-1-1 5h-2l-1 3c-2.062.688-2.062.688-4 1l1-3-3.312.063C318 26 318 26 315 25v-2l8 1 2.188-3.25c2.25-3.17 4.629-5.476 7.812-7.75"/><path fill="#130908" d="m251 563 9 2v5h-2l-1 3c-2.944 1.178-3.9 1.033-7 0-.125-7.75-.125-7.75 1-10"/><path fill="#332722" d="M114 409c5.682 1.159 10.156 4.422 13.438 9.188C129 421 129 421 129 423l3 1c1.188 2.063 1.188 2.063 2 4h-7c-.842-3.157-1-5.726-1-9l-2.812.563C120 420 120 420 117 419v-2h5l-2.312-2.312z"/><path fill="#231819" d="m88 132 4 1c-.812 2.438-.812 2.438-2 5l-3 1c-1.224 1.63-1.224 1.63-2.187 3.563L83 146c-2.84 0-5.237-.403-8-1v-3l-3-1 1-4c4 4.625 4 4.625 4 8l2-1c.73-2.314 1.401-4.648 2-7l2 4 1-4h2z"/><path fill="#3b3030" d="M298 26c1.67.038 3.338.154 5 .313l2.75.238L308 27l1 2h-2v2l2.75.313c3.27.691 4.787 1.508 7.25 3.687l-1 3-1.437-1.75c-3.415-2.998-7.184-4.993-11.563-6.25-2.203.086-2.203.086-4 1l-1 3c-3.71 2.014-6.829 2.194-11 2l-1-2 11-1-.062-2.937C297 27 297 27 298 26"/><path fill="#403331" d="M319 41c2.583 1.004 3.794 1.664 5.266 4.059l.984 2.379 1.016 2.37C327 52 327 52 327 55h3c2.04 12.713 2.231 25.146 2 38h-1l-.136-2.427c-.213-3.671-.445-7.34-.676-11.01l-.213-3.819c-.682-10.435-3.161-18.475-7.663-27.806l-.97-2.045Q320.177 43.443 319 41"/><path fill="#2e2122" d="M88.563 148.938 91 149l-1.75 3.36-2.25 4.39-1.156 2.21-1.094 2.15-1.016 1.967c-.972 2.203-.972 2.203-.734 5.923l-2 1-3-1v-4h2v-2h2l-1-3c.938-2.687.938-2.687 2-5h2l-.062-2.437c.084-3.458.167-3.541 3.624-3.625"/><path fill="#1b1413" d="M303 133h3v4l11 1-1 5-3-1h2v-2l-3.5.313c-7.462.06-14.528-2.918-21.5-5.313 2.825-.813 5.254-1.088 8.188-1H302z"/><path fill="#180e11" d="M73 89h2v4h4v2h-4l1 1.813C77 99 77 99 77 102l-2.187-.312C70.88 102.124 69.537 104.1 67 107c.748-3.295 1.828-6.395 3-9.562 1.035-2.805 2.055-5.602 3-8.438"/><path fill="#200f0d" d="m253 520 2 4-4 1-1 8-2.687.25c-3.726.843-5.522 2.206-8.313 4.75l-2-1a91 91 0 0 1 4-4h2l.742-1.703c1.487-2.716 3.299-4.76 5.383-7.047l2.195-2.422z"/><path fill="#231717" d="M283 508h3v2l3 1c-2.838 1.914-5.652 3.801-8.625 5.5-2.499 1.578-4.367 3.343-6.375 5.5l-1-2h2v-5l3-1 1-5 1 2h2z"/><path fill="#362b29" d="M197 134c11.655 5.427 11.655 5.427 14 9 0 3.069-.55 4.457-2.5 6.813-3.765 1.788-7.401 1.423-11.5 1.187l-1-2h10v-4h3v-3h-7l1-3-1.875-.25C199 138 199 138 197.867 135.953z"/><path fill="#180d11" d="M181 101h5l-2 18-1-2h-2c-.71-5.53-1.303-10.5 0-16"/><path fill="#140b0a" d="m189 77 4 2-1 4-1-1-1.25 3.375c-1.047 2.437-1.488 3.44-3.687 5C184 91 184 91 181.813 91.438L180 92l-1 3c-.22-3.856.396-6.492 2-10l1 2h2l1-4v2h3z"/><path fill="#25201d" d="m208 61 2 1c-2.563 3.951-5.254 7.798-8 11.625l-2 2.79c-1.858 2.4-3.802 4.495-6 6.585v-5l4-1-.25-2.75c.25-3.25.25-3.25 2.063-5.5C202 67 202 67 205 65v-2h3z"/><path fill="#231612" d="M291 341c6.302.594 6.302.594 8.938 2.125 1.646 2.906 1.247 5.613 1.062 8.875l-2 1v-3l-2.875-.437C293 349 293 349 291 348c.506-2.169 1-4 2-6z"/><path fill="#201516" d="M375 45c4.397 1.2 7.098 2.429 10 6v2l-12 1c.486-3.123.999-5.996 2-9"/><path fill="#362724" d="m283 108 2 1-1 2a144 144 0 0 0-.5 5.438c-.233 3.125-.505 5.576-1.5 8.562l3 1v4l1.938.875C289 132 289 132 290 134a174 174 0 0 1-4-2l-2.625-1.312c-2.963-2.106-3.603-3.138-4.375-6.688.011-5.93 1.412-10.711 4-16"/><path fill="#3a2928" d="M291 591c3.558 5.337 3.672 10.354 2.54 16.5-1.578 6.084-4.057 10.118-8.54 14.5l-2-2 1-3v2h2v-3h2l1-5h2z"/><path fill="#3e312f" d="M269 68c4.121 2.981 6.099 5.994 7 11-.854 4.95-2.131 7.776-6 11v-5h3c.077-4.516.102-8.59-1-13h-4v-3q-2.471.423-4.937.875l-2.778.492L258 71l-1 2h-2l1-4c4.356-1.205 8.51-1.706 13-1"/><path fill="#39302c" d="M251 257h1q-.18 6.003-.372 12.006-.065 2.037-.125 4.076-.09 2.946-.187 5.89l-.11 3.571c-.21 3.53-.658 6.965-1.206 10.457h-1q-.075-6.244-.11-12.488a814 814 0 0 0-.04-4.242c-.025-2.04-.037-4.08-.045-6.122l-.032-3.713c.23-3.473.976-6.201 2.227-9.435"/><path fill="#2d271e" d="M259 87c3.806.672 7.352 1.727 11 3v2c-4.558 2.5-9.08 2.373-14 1-1.773-1.55-1.773-1.55-3-3l5 1z"/><path fill="#211612" d="M205 253c0 3.61-1.011 6.539-2 10v3c-6.625 1.25-6.625 1.25-10-1z"/><path fill="#150a0d" d="m177 100 2 2a180 180 0 0 1-1 6l1 3c-.437 2.188-.437 2.188-1 4h2v6l-4 1c-1.002-7.105-1.16-13.894 0-21z"/><path fill="#1c1114" d="m187 411 1 2c2.017 1.134 2.017 1.134 4 2q-2.682 1.758-5.375 3.5l-3.023 1.969C181 422 181 422 179 422v-9l1 3c4.23-1.688 4.23-1.688 7-5"/><path fill="#423630" d="M275 3c-26.751.206-26.751.206-40-1V1c32.27-3.154 32.27-3.154 40 2"/><path fill="#2a2022" d="m64 96 4 2 2-2c-.597 3.031-1.508 4.987-3.375 7.438A87 87 0 0 0 61 112c-1.293-3.63-.687-6.04.375-9.687l.836-2.95C63 97 63 97 64 96"/><path fill="#3b2f2d" d="m341 24 3 1-2 1 1.984.043c7.961.416 16.751 2.108 22.86 7.621L368 35c-2.19-.487-4.174-1.073-6.25-1.937C354.444 30.24 346.7 29.206 339 28v-3z"/><path fill="#110703" d="M281 597h2c1.458 10.298 1.458 10.298 0 14-2.062 1.313-2.062 1.313-4 2l-2-2c.313-1.832.313-1.832 1-4q.76-3.535 1.5-7.074C280 598 280 598 281 597"/><path fill="#332623" d="m256 412 3 2v2h2c1.438 2.152 1.438 2.152 3 4.938 1.86 3.686 1.86 3.686 5 6.062.852 1.848.852 1.848 1.625 4.063.26.733.52 1.466.79 2.222.192.566.386 1.132.585 1.715h-2a132 132 0 0 1-3-5c-2.033-2.163-2.033-2.163-5-4-.687-2.125-.687-2.125-1-4l-2 1 1-6h-3z"/><path fill="#271a19" d="M247 201h1v12h2c2.125 4.625 2.125 4.625 1 8h-6z"/><path fill="#372925" d="m324 253 1 2c-2.344 6.563-2.344 6.563-6 9-4.571.597-8.73.529-13-1.25-2.061-1.804-3.034-3.204-4-5.75h4v4h5v2h7l1-4h2z"/><path fill="#160d0b" d="M295 348c3 1 3 1 4 2v5h-13l2-2h3l.875-1.937C293 349 293 349 295 348"/><path fill="#332b28" d="m183 37 4 1-2.062 1.813c-3.538 3.487-5.92 7.736-8.485 11.957L175 54h-1c-.25-3.312-.25-3.312 0-7 1.938-1.625 1.938-1.625 4-3 .804-2.599.804-2.599 1-5h4z"/><path fill="#281c1a" d="M53 123c3 2 3 2 3.477 4.059l.148 2.379c.195 2.822.469 4.843 1.375 7.562h2v6c-2.352-3.02-4.389-6.127-6.312-9.437-.554-.927-1.107-1.854-1.676-2.81C51 128 51 128 51.832 125.154z"/><path fill="#352929" d="m74 109 2 1-1.375 3.5c-2.352 6.945-2.868 14.244-3.625 21.5h-1v-24l4 1z"/><path fill="#281f1d" d="m131 44-1 5c-3.058.544-5.888 1-9 1l-2.5 1.563L116 53l-3-1c13.2-8 13.2-8 18-8"/><path fill="#302525" d="M143 21c5.853.45 10.082 3.038 15 6v2l1.938.375L162 30l1 2-7-2v-3h-5v-2l-1.5.563c-3.65.638-6.84-.014-10.5-.563v-1h5z"/><path fill="#1f1312" d="m268 506 2 1-2 2a154 154 0 0 0-2 7c-2.312.625-2.312.625-5 1l-3-2a949 949 0 0 1 3.313-3.375l1.863-1.898C265 508 265 508 268 506"/><path fill="#100602" d="m299 486 5 1c.193 4.824-.243 8.496-2 13h-3z"/><path fill="#281d1c" d="m173 407 2 1-2.375.25c-2.722.447-2.722.447-3.625 2.5l-1 2.25c-4.9 5.544-4.9 5.544-9 6v-3l-2-1c3.373-2.833 6.931-4.358 11-6l2.813-1.25z"/><path fill="#261817" d="M335 230h1v5h2v-4h2v2l2 1c-1.375 1.5-1.375 1.5-3 3h-2v2c-2.5 1.625-2.5 1.625-5 3q.174-2.157.375-4.312c.07-.801.14-1.602.21-2.426C333 233 333 233 335 230"/><path fill="#2d221e" d="M60 414c3.934 5.9 5.007 13.993 4 21l-2 2v-8l-2 1-1-10h2z"/><path fill="#342222" d="M169 80c1.26 3.782.423 5.364-1 9-1 1-1 1-3.437 1.188C162 90 162 90 160 88v-3h7v-4z"/><path fill="#281e1d" d="M248 293h1c.11 6.737-.299 13.3-1 20h-3c-3.077-6.4-3.077-6.4-2.687-9.437L243 302l3 1v3z"/><path fill="#312729" d="m93 62 3 1c-1.375 1.5-1.375 1.5-3 3h-2l-1 3h-2l-1 3c-1.629 1.387-1.629 1.387-3.562 2.688l-1.942 1.324L80 77c1.135-3.842 2.126-7.126 5-10h4v-2h3z"/><path fill="#312423" d="M83 394c3 2 3 2 4.313 4.313 2.629 4.187 5.755 7.14 10.562 8.5L100 407v1c-3.375.125-3.375.125-7 0l-2-2c-2.57-.648-2.57-.648-5-1v-5l-3 1z"/><path fill="#302527" d="M236 282h1l.148 2.887.227 3.8.21 3.762c.382 3.268 1.089 5.577 2.415 8.551.375 2.625.375 2.625 0 5-1.812 1.875-1.812 1.875-4 3l-3-1 4-3-1-3a80 80 0 0 1-.098-4.668l.01-2.705.025-2.815.014-2.85q.018-3.48.049-6.962"/><path fill="#1e131b" d="M181 101v16l2 1-1 2h-2v-5h-2l.063-2.875c.163-3.032.163-3.032-1.063-5.125.313-2.562.313-2.562 1-5 2-1 2-1 3-1"/><path fill="#2e2523" d="M257 231c7.193 1.162 14.07 2.745 21 5v1c-5.75.125-5.75.125-8-1a95 95 0 0 0-5.125-.062l-2.758.027L260 236v-2h-3z"/><path fill="#2a201d" d="m97 133 2 1c-1.545 5.48-4.155 10.114-7 15h-1c-.125-3.375-.125-3.375 0-7l2-2c.643-2.069.643-2.069 1-4h3z"/><path fill="#3a2d28" d="m393 18 2 1v5c-5.239 1.103-10.663 1.566-16 1l-2-2 3 .188c4.505.009 7.908-1.354 12-3.188z"/><path fill="#271c16" d="M267 332c3.594 1.335 6.755 2.96 10 5l-3 1 1 2c-2.875.188-2.875.188-6 0-2.152-3.228-2.2-4.284-2-8"/><path fill="#3a2a2d" d="m147 50 1 3h7l-2 4-1.937-.937C147.08 54.68 143.183 54.346 139 54c2-3 2-3 5.125-3.687z"/><path fill="#322726" d="m135 85 1 2 2 1-12 9 1-5 3-1v-3c2.5-1.687 2.5-1.687 5-3"/><path fill="#201316" d="M388 53h2c2.688 2.813 2.688 2.813 5 6l-1 3-6-1z"/><path fill="#2c1e1d" d="m283 478 .184 2.52.253 3.293.247 3.269c.218 2.978.218 2.978 1.316 5.918h-2q-.974-2.374-1.937-4.75l-1.09-2.672A47 47 0 0 1 278 479c2-1 2-1 5-1"/><path fill="#3c3029" d="M330 100h1c.081 2.229.14 4.458.188 6.688l.105 3.761c-.313 3.793-1.189 5.459-3.293 8.551-.714 3.194-.714 3.194-1 6h-2c1.694-9.117 1.694-9.117 3.063-13.062 1.254-3.933 1.59-7.839 1.937-11.938"/><path fill="#3a3133" d="M78 77h2l-3 6 2-1-1 5-6 1c.557-3.344 1.352-6.033 3-9h3z"/><path fill="#393231" d="M170 73h9c1.262 2.525 1.099 4.312 1.063 7.125l-.028 2.758L180 85c-1.52-1.3-1.52-1.3-3-3 .313-3.187.313-3.187 1-6l-7-1-1 4z"/><path fill="#3f3533" d="M143 34c2.813-.312 2.813-.312 6 0 2.311 2.85 3 4.314 3 8h-15l2-2c2.602.023 2.602.023 5.625.375l3.04.336L150 41c-2.22-2.908-3.93-4.953-7-7"/><path fill="#201613" d="M218 372v3Zm-4 1 2 3h3l-2 4c-4 0-4 0-6-1l-1 2-2-1 2-3h2z"/><path fill="#0b0406" d="M331 124v3h-2v6h-5l1-8c3-1 3-1 6-1"/><path fill="#170b0b" d="m126.75 26.938 2.422.027L131 27v2l-11 1v2l-6 1 2-3h2v-2c2.995-.872 5.636-1.108 8.75-1.062"/><path fill="#291f20" d="m34 453 1 3-2 4-11-1v-3l1 1c4.57-.345 7.583-.857 11-4"/><path fill="#251917" d="m126 444 5 2c-1 3-1 3-2 4l4 2v2c-3.653-1.25-4.78-1.671-7-5l-3-1v-2h3z"/><path fill="#241914" d="m32 413-1 2h-4v6h-5l3-1-1-3 1-1-4-2c3.77-2.564 6.674-1.832 11-1"/><path fill="#382e2c" d="M189 95c1.392 2.785.544 3.999-.375 6.938-1.645 5.68-2.295 11.173-2.625 17.062h-1c-.203-7.948-.334-15.349 2-23z"/><path fill="#382f27" d="m243 35 3 1c-.613 2.962-1.254 4.38-3 7-1.945.293-1.945.293-4.125.188L235 43l-2-4h3v2h6z"/><path fill="#231714" d="M395 21h3v2l5 2c.625 3.375.625 3.375 1 7l-2 2c-3-6.625-3-6.625-3-10h-4z"/><path fill="#281c1e" d="M275 466c1.945 2.918 2.453 4.625 3 8h3l-1 3h-2l-1 2c-2.056-3.926-3.69-7.766-5-12z"/><path fill="#0f0404" d="M240 363h2q.039 2.375.063 4.75l.035 2.672c-.09 2.36-.429 4.323-1.098 6.578h-5v-4h2v2h2z"/><path fill="#2c1d1b" d="M219 303v5l4 2v2c-4.234-1.31-8.074-2.944-12-5 2.426-2.657 4.24-4 8-4"/><path fill="#28211c" d="m231 229 1 3-11 9-2-1a105 105 0 0 1 4-5h2v-2a125 125 0 0 1 6-4"/><path fill="#1f1712" d="m306 156 1 2-2 1-1 3h-5l-1-2-2-1c3.512-2.408 5.727-3.366 10-3"/><path fill="#372c29" d="M178 91c.958 3.639 1.498 7.27 2 11l-3-1-2 11h-1c-.594-7.573 1.567-13.875 4-21"/><path fill="#271918" d="M204 405c-3.11 3.288-6.016 5.837-10 8v-3h2l1-5c3.01-.934 3.867-1.044 7 0"/><path fill="#100704" d="M270 337h5c.688 1.75.688 1.75 1 4-1.312 2.25-1.312 2.25-3 4h-2v-4l-4 1v-4h2v2l5-1z"/><path fill="#362928" d="m390 203 2 1c-2.266 1.917-4.03 3.01-6.875 3.938-3.502 1.19-6.126 2.92-9.125 5.062l-2-1a91 91 0 0 1 4-4h2v-3l7 1v-2z"/><path fill="#281f1f" d="M309 28c2.36.936 4.696 1.933 7 3v3l3 1v6l-2-1v-5c-3.225-1.737-6.513-2.89-10-4v-2z"/><path fill="#291f1c" d="M267 524c2.063.438 2.063.438 4 1a376 376 0 0 1-2.875 3l-1.617 1.688C265 531 265 531 263 531l-1 2v-7l1.938-.437c2.037-.373 2.037-.373 3.062-1.563"/><path fill="#281f1b" d="M322 229c1.144 3.433 1.308 4.647 0 8-3.089 2.455-5.983 4-10 4 1.375-2 1.375-2 3-4h2l.813-1.75c1.204-2.283 2.595-4.224 4.187-6.25"/><path fill="#2b2122" d="m106 118 2 1c-1.208 4.43-2.517 6.981-6 10-.125-6.625-.125-6.625 1-10z"/><path fill="#0b0406" d="m189 77 4 2-1 4-1-1-3 7-1-3-2-1h3z"/><path fill="#140c0e" d="m89 73 3 1v3h2l1-3c2 3 2 3 2 7h-2l-1-2-4 1z"/><path fill="#322527" d="m154 57 4 2v2h3l-1 3-3 1c-1.209 2-1.209 2-2 4l-1-3-3-1 6-2z"/><path fill="#352b2c" d="m142 32 1 2-3-.125c-4.238-.017-7.932.983-12 2.125l1-4c4.624-1.3 8.337-.855 13 0"/><path fill="#403533" d="M277.273 27.676c1.914.824 1.914.824 4.727 2.324v2l-3.687-1.5c-6.047-2.057-12-1.763-18.313-1.5 5.181-3.046 11.572-3.02 17.273-1.324"/><path fill="#372e2d" d="M151 78c6.152-.098 6.152-.098 8 0 1 1 1 1 1.063 4.063L160 85c-2-3.75-2-3.75-2-6l-2.336.91c-1.003.38-2.006.76-3.039 1.153l-3.023 1.16C147 83 147 83 145 82l1-2h5z"/><path fill="#352b29" d="m340 49 2 1c.358 2.33.688 4.664 1 7l1.125 2.688c.988 2.612.829 3.736-.125 6.312l-1.375-1.5c-1.501-1.726-1.501-1.726-3.625-1.5v-2h2l-.5-2.062c-.57-3.354-.567-6.542-.5-9.938"/><path fill="#403433" d="M359 17c4.468-.213 7.823.409 12 2v2h5l1 2c-4.846-.593-9.324-1.614-14-3a171 171 0 0 0-5-1z"/><path fill="#362926" d="m273 612 1 2c-3.62 1.625-6.98 2.994-10.812 4.063-3.249.678-3.249.678-5.188 2.937l-5-2v-1l3.36-.805 4.39-1.07 2.21-.527c3.573-.877 6.834-1.725 10.04-3.598"/><path fill="#332626" d="m228 599 2 3 2-2 1 2-1 3h-2v8l-2-1z"/><path fill="#281e1b" d="M251 543c-1.555 3.817-4.036 6.192-7 9l-1-3h3l-1-6c2.49-1.245 3.41-.777 6 0"/><path fill="#332825" d="m265 451 5 2-1 5h2l1-2v11c-2.032-2.032-2.56-3.112-3.5-5.75l-.77-2.14A447 447 0 0 1 265 451"/><path fill="#302522" d="m129 76 2 1-1 2h-3v3h-2v3l-3 1-1-2-2-1z"/><path fill="#352927" d="M233 38c-3.197 2.649-6.395 4.94-10 7 .599-2.352 1.27-4.686 2-7 2.862-1.43 4.934-.6 8 0"/><path fill="#453b3c" d="M235 13h11l1 3-2.437-.562L242 15l-1 1c-2 .04-4 .043-6 0z"/><path fill="#2c1f1c" d="m317 155 1 3 3 1a125 125 0 0 1-4 6h-2c-.25-6.625-.25-6.625 2-10"/><path fill="#231616" d="M70 123v12c-3-2-3-2-3.73-4.164l-.457-2.461c-.16-.817-.318-1.635-.481-2.477L65 124c2-1 2-1 5-1m-3 2 1 4Z"/><path fill="#1c1113" d="M191 81c1.448 2.313 2.126 3.416 1.54 6.14l-.915 2.11-.898 2.14L190 93h-2c-.883-2.467-1.131-3.639-.223-6.14l1.16-2.11 1.153-2.14z"/><path fill="#2a1e1c" d="M63 77h2v8h-7l3-6h2z"/><path fill="#160c0b" d="M124.125 48.188 126 49l2.25.563L130 50l-1.937.313L126 51l-1 3-1-3-2.312 1.063C119 53 119 53 116 52c5.404-4.053 5.404-4.053 8.125-3.812"/><path fill="#0e0304" d="M201 41c1.087 4.075 1 7.783 1 12h-2l-1-3-2 3c.665-4.389 2.188-7.981 4-12"/><path fill="#352a25" d="M421 30c2 1 2 1 3.188 2.563 1.226 3.679.446 6.631-.188 10.437h-6l2.016-1.176c2.258-1.656 2.258-1.656 2.156-4.304l-.422-2.708-.39-2.73c-.12-.687-.238-1.374-.36-2.082"/><path fill="#413734" d="m350.625 39.938 3.602.027L357 40l1 3-13-1-2 6h-1v-7c2.884-1.442 5.417-1.094 8.625-1.062"/><path fill="#160a0c" d="m197 15 4 1-1 1 3 1v2l-8 2v-5h2z"/><path fill="#362a29" d="M195 301h12l-1 3 5 1c-2.306.823-3.48 1.242-5.75.188L203 304c-2.65-.76-5.314-1.373-8-2z"/><path fill="#28201e" d="M199 259v3l-1 1h5v3c-6.625 1.25-6.625 1.25-10-1z"/><path fill="#0a0603" d="M225 237c2 2 2 2 2.125 5.125L227 245l-4-1 1-2h-3c1-3 1-3 4-5"/><path fill="#332724" d="m390.5 187 2.5 1v1h-16v-2c4.238-2.12 9.118-1.252 13.5 0"/><path fill="#1c100e" d="M88 131c-.506 2.169-1 4-2 6h-2l-1 6h-1c-.326-4.162-.407-6.363 1.875-9.937C86 131 86 131 88 131"/><path fill="#2f201d" d="M289 611h2c-.445 5.04-2.713 7.376-6 11l-2-2 1-3v2h2v-3h2z"/><path fill="#281c1d" d="m254 533 5 2c0 2 0 2-2.375 4.563C254 542 254 542 252 543l-1-3 3-1z"/><path fill="#2f221f" d="m143 446 1 3-1 2h2c-1 3-1 3-3 4-1.54.07-3.083.085-4.625.063l-2.477-.028L133 455v-1h8l.438-3.437C142 447 142 447 143 446"/><path fill="#3c2f2e" d="M272 435c3.8 3.257 6.48 7.226 8 12-.395 2.25-.395 2.25-1 4a418 418 0 0 1-2-3.812l-1.125-2.145C275 443 275 443 275 440h-2z"/><path fill="#231b1a" d="M130 423.188c2 .812 2 .812 3.25 2.875L134 428h-7l-1-4c2-1 2-1 4-.812"/><path fill="#1a1011" d="M241 257c2.83 3.996 1.762 7.427 1 12h-2c-1.248-2.497-.952-3.813-.625-6.562l.273-2.442C240 258 240 258 241 257"/><path fill="#201717" d="M76 157h2v2h2v-2h2v6h-2v2h-2z"/><path fill="#3e312f" d="M290 134q2.657.212 5.313.438c.986.08 1.972.162 2.988.246C301 135 301 135 304 136v2l4 1c-3.371 1.686-6.72-.311-10.125-1.437l-2.285-.737A1021 1021 0 0 1 290 135z"/><path fill="#3a2d2c" d="m109 68 4 1a986 986 0 0 1-4.875 4l-2.742 2.25C103 77 103 77 101 77l1-3h3v-3h3z"/><path fill="#231915" d="m254 2 13 1c-3.744 1.872-4.84 2.24-8.75 2.125l-2.422-.055L254 5z"/><path fill="#322725" d="M241 384c4.436 3.518 5.52 7.754 7 13h-5l2-1-2-8h-2z"/><path fill="#281c1a" d="M323 149c2.125.938 2.125.938 4 2a698 698 0 0 1-2.437 3.5l-1.372 1.969L322 158h-1v-8z"/><path fill="#2a1e1f" d="M131 21v2c-2.962 2.172-5.507 3.836-9 5-2.187-.437-2.187-.437-4-1q2.684-1.507 5.375-3l3.023-1.687C129 21 129 21 131 21"/><path fill="#2f2521" d="M197 15v2h-2l-1 4h-7c5.6-6 5.6-6 10-6"/><path fill="#392b27" d="m245 559 2.938.875c4.311 1.237 8.676 2.19 13.062 3.125v1c-6.625.125-6.625.125-10-1l-1 2v-3l-5-1z"/><path fill="#241b1a" d="M236 552h2v3h3l1 2 3 2c-6.625-.75-6.625-.75-10-3z"/><path fill="#2c2221" d="M280 451c2 1 2 1 2.633 2.848l.492 2.214.508 2.223L284 460l-4-1v2l-2-1z"/><path fill="#31241c" d="M179 293h8v5l3 1c-4.51-.53-7.384-2.309-11-5z"/><path fill="#3a2d2e" d="M72 137c2.5 2.313 2.5 2.313 5 5v3c2.33-.959 2.33-.959 4-4l-1 5-5-1v-3l-3-1z"/><path fill="#342a29" d="m83 89 5 1q-1.463 2.254-2.937 4.5l-1.653 2.531L82 99h-1v-5h2v-2h2v-2z"/><path fill="#150b0a" d="M117 87c3.694 1.231 5.351 3.208 8 6l-3 1v-2l-4 3c-1.43-2.354-2.087-3.48-1.625-6.25z"/><path fill="#261713" d="m395 61 6 1v5h-3v-3l-4 1z"/><path fill="#382d29" d="M254 0v2c-3.905 1.359-7.71.895-11.75.563l-2.113-.159A942 942 0 0 1 235 2V1c6.347-.584 12.624-1.145 19-1"/><path fill="#0f0204" d="M240 562c3.716-.2 4.772-.152 8 2v-2h2v3h-2v2h-2v-2l-7-1z"/><path fill="#3b2f2f" d="M45 385h1l1 10-10 1c2.36-2.36 3.779-2.491 7-3z"/><path fill="#322520" d="M266 343h3v2h-2v2h2l1 3c-3.083-1.199-6.063-2.477-9-4l1.938-.937c1.998-.898 1.998-.898 3.062-2.063"/><path fill="#0d0504" d="M195 267c-.312 1.875-.312 1.875-1 4-3.228 2.152-4.284 2.2-8 2v-2c6.75-4 6.75-4 9-4"/><path fill="#322521" d="M206 145h3c-.375 2.438-.375 2.438-1 5-2.405 1.203-3.95 1.1-6.625 1.063l-2.477-.028L197 151l-1-2h10z"/><path fill="#0f0506" d="M61 141h5l-3 9c-2.29-3.435-2.178-4.985-2-9"/><path fill="#3a2a27" d="m273 75 3 2c-.37 7.262-.37 7.262-3.562 11L270 90v-5h3z"/><path fill="#150c0d" d="m85 76 3 1c-1.584 3.167-2.453 4.733-5.687 6.313L80 84v-3h3l.438-1.937C84 77 84 77 85 76"/><path fill="#2a1e1b" d="M78 61c1.033 2.788 1.045 3.868.063 6.75L77 70h-2v-3l-2-1z"/><path fill="#372c2c" d="M253 29h6c-2.682 1.788-5.303 3.201-8.187 4.625l-2.731 1.352L246 36l-1-4 5 1v-2h3z"/><path fill="#0e0404" d="M240 565h2l1.375 1.438c1.855 1.783 3.126 2.131 5.625 2.562v2l-8-1z"/><path fill="#2b211f" d="M51.063 453.938 54 454c-1.375 2.5-1.375 2.5-3 5h-2l-1 2a129 129 0 0 1-1-6c1-1 1-1 4.063-1.062"/><path fill="#362827" d="M300 170h9c-3.288 2.912-5.599 4.497-10 5z"/><path fill="#362a27" d="m55 130 2 1c.625 3.063.625 3.063 1 6h2v6c-3.04-3.649-4.965-7.744-7-12z"/><path fill="#130708" d="m260 437 5 1-1 5h-3v-3h-2z"/><path fill="#201715" d="M148 434h3v2l5-1c-4.75 4.875-4.75 4.875-7 6z"/><path fill="#3e302f" d="m29 426-1.812.75c-4.543 2.595-5.754 6.396-7.188 11.25-1.602-4.006-.477-7.086 1-11 2.928-.976 4.956-1.082 8-1"/><path fill="#261c17" d="m19 415 2 1v4c-3.167 1.056-3.964.98-7 0l-2-1c5.273-3.223 5.273-3.223 7-4"/><path fill="#231718" d="m187 411 1 2c2.017 1.134 2.017 1.134 4 2l-6 3v-2h-2c0-2 0-2 1.5-3.625z"/><path fill="#100504" d="M230 350h5v6l-3-1 1-2h-3l-1 2z"/><path fill="#100605" d="m295 348 3 1c-1.375 1.5-1.375 1.5-3 3h-2l-2 3c-2.625.188-2.625.188-5 0l2-2h3l.875-1.937C293 349 293 349 295 348"/><path fill="#382e2e" d="M190 125c2.964 2.808 5.445 5.183 7 9-2.437-.375-2.437-.375-5-1l-1-2 1-2h-2z"/><path fill="#362d2c" d="m200 73 1 2a962 962 0 0 1-2.937 4l-1.653 2.25L195 83h-1v-5l1.875-.25c2.31-.563 2.31-.563 3.375-2.812z"/><path fill="#1e1413" d="M113 34v2a159 159 0 0 1-6 5l-2-4h2v-2c2.076-.553 3.844-1 6-1"/><path fill="#29201d" d="m292 32-1 3-9-2v-1c3.663-.75 6.424-1.238 10 0"/><path fill="#392f2c" d="m326 20 1 2c-.937 2.125-.937 2.125-2 4-6.625.125-6.625.125-10-1v-2l8 1z"/><path fill="#403330" d="m413 19 1 2h2c4 5.294 4 5.294 4 9a141 141 0 0 1-5-5v-2h-2z"/><path fill="#3b312f" d="M357 19c-2.854 1.506-5.681 2.632-8.75 3.625-.8.26-1.598.52-2.422.79L344 24v-3c4.504-1.757 8.176-2.193 13-2"/><path fill="#291e18" d="m237.188 1.875 3.855.055L244 2l-3 3-3-1a119 119 0 0 0-5.687-.062l-3.012.027L227 4c3.737-2.491 5.745-2.207 10.188-2.125"/><path fill="#342825" d="m248 572 2.75.563c2.933.394 4.514.384 7.25-.563l2 4c-1.814-.28-3.626-.575-5.437-.875l-3.06-.492L249 574z"/><path fill="#352a2b" d="M44 439c.755 2.596 1.03 3.861.438 6.563-1.901 3.222-4.04 4.034-7.438 5.437 1.383-2.869 2.921-5.56 4.625-8.25l1.352-2.14z"/><path fill="#2c1e1f" d="M330 242h2c-1.186 3.375-2.276 5.647-5 8v-2h-2l1-3h2z"/><path fill="#100605" d="M336 229h5l1 4h-2v-2h-2v4h-2z"/><path fill="#372a2c" d="M118 99h5c-1.23 3.688-2.939 4.724-6 7z"/><path fill="#2d272a" d="m97 64 2 1c-1.372 2.954-2.989 5.44-5 8l-1-2h-2v-2a159 159 0 0 1 6-5"/><path fill="#3b2e25" d="M379 53v5l3 1c-4.314-.48-6.166-1.746-9-5 2.076-.553 3.844-1 6-1"/><path fill="#19120e" d="m379 48 6 3v2h-7z"/><path fill="#130806" d="m96 48-1 4-4 1-1 4c-.812-1.687-.812-1.687-1-4 4.205-5 4.205-5 7-5"/><path fill="#0c0302" d="m388 9-1 4h-2v-2l-4 2-2-3c6.75-2.125 6.75-2.125 9-1"/><path fill="#372d2a" d="m250 427 4 2v2h3v6c-3.336-2.99-5.15-5.932-7-10"/><path fill="#241916" d="M286 351h4v2c-3.996 2.83-7.427 1.762-12 1v-1l3.438-.437c3.37-.175 3.37-.175 4.562-1.563"/><path fill="#281e1c" d="m291 341 7 1 1 3-2 1v-3h-2v2h-2l-1 2c0-3 0-3 1-5z"/><path fill="#170e0d" d="m130 78 1 2-2 1 2 1-1 3h-5v-3h2v-3z"/><path fill="#0d0708" d="m181 76 3 1v5h-4z"/><path fill="#382d2f" d="M129 54h10c-3.285 2.19-6.207 2.998-10 4z"/><path fill="#372926" d="m174 283 1 3h3l1 7c-2.5-1.625-2.5-1.625-5-4-.312-3.25-.312-3.25 0-6"/><path fill="#2a1e1a" d="M251 257h1c.082 4.161-.018 7.947-1 12h-2c-.213-4.468.409-7.823 2-12"/><path fill="#3c2f2f" d="m205 159 1 2h3l2 3c2.05 1.192 2.05 1.192 4 2l-2 1c-3.148-1.377-5.562-2.562-8-5z"/><path fill="#38312f" d="m317 138-1 5-3-1h2v-2h-7c3.135-1.858 5.375-2.201 9-2"/><path fill="#1a1010" d="M290 109h3c.75 1.75.75 1.75 1 4-1.937 2.25-1.937 2.25-4 4z"/><path fill="#372f29" d="m208 61 2 1c-3.625 5.75-3.625 5.75-7 8a85 85 0 0 1 2-7h3z"/><path fill="#382b27" d="m93 47 2 1-2.437 2.313C89.832 52.794 89.832 52.794 89 56l-4-1z"/><path fill="#3f3631" d="m365 47 5 1 1 4h2v2l-3-1v-2l-1.937-.875C366 49 366 49 365 47"/><path fill="#1f170f" d="M231 37h8l1 4c-5.538-.615-5.538-.615-7.875-2.562z"/><path fill="#30221f" d="m5 462 5 2v2h2l-1 2H7z"/><path fill="#0f0402" d="M6 458h2v3h3l-2 4-3-2c-.187-2.625-.187-2.625 0-5"/><path fill="#322626" d="M227 299c3.147.7 6.026 1.76 9 3v1l-3.375-.062c-3.457-.202-3.457-.202-5.625 1.062z"/><path fill="#342a2f" d="m108 47 4 2a141 141 0 0 1-5 5h-2v-3h3z"/><path fill="#2a211e" d="M203 22v3h-3v3l-4 1v-3l3 1-1-3c3-2 3-2 5-2"/><path fill="#251b1c" d="M362 15v2c-3.402 2.094-6.053 2.18-10 2l3-1v-2c2.49-.687 4.379-1 7-1"/><path fill="#110506" d="M230 589h2l1 9h-2z"/><path fill="#120402" d="M261 574h3v2l3-1v4c-1.875-.25-1.875-.25-4-1-1.25-2.062-1.25-2.062-2-4"/><path fill="#201616" d="M248 565h2q.57 2.988 1 6c-1 1-1 1-4.062 1.063L244 572v-1h5z"/><path fill="#302422" d="m244 530 1 3-6 5-2-1a91 91 0 0 1 4-4h2z"/><path fill="#291f1b" d="m268 506 2 1-2 2c-.648 2.57-.648 2.57-1 5l-2-1v-2l-2-1z"/><path fill="#3b2b26" d="M297 477h2c2.152 3.228 2.2 4.284 2 8h-2v-4h-2z"/><path fill="#312018" d="M28 469h8l-1 2c-2.649.594-5.292.742-8 1z"/><path fill="#281e1e" d="m56 446 2 3-4 5v-3h-2v-3l4 1z"/><path fill="#2a1d1a" d="M109 425h5l1 8h-2v-4l-3-1z"/><path fill="#2e231d" d="m251 316 6 5-4 2v-3h-2z"/><path fill="#3e2e2a" d="m84 170 2 1v7l-3 1v-5h2z"/><path fill="#29201a" d="m239 162 6 1-3 1-1 3-5-2 3-1z"/><path fill="#433c40" d="m78 82 1 2-1 3-6 1v-3l2.438-.937C76.89 83.237 76.89 83.237 78 82"/><path fill="#251b1c" d="m180 82 4 1v4h-2c-1.625 1.458-1.625 1.458-3 3z"/><path fill="#383133" d="m93 62 3 1c-1.375 1.5-1.375 1.5-3 3h-2l-1 3h-2l1-4h3z"/><path fill="#1c1613" d="M296 27h1v6l-5 1c1.074-2.915 1.778-4.778 4-7"/><path fill="#291f1a" d="M115 433h5v6l-1-2h-3z"/><path fill="#0c0303" d="M153 424h2v2h-2v3l2 1-4 1c-.125-2.375-.125-2.375 0-5z"/><path fill="#130503" d="M74 401h1v5h2v2l-3 1c-1.125-2.312-1.125-2.312-2-5z"/><path fill="#271d1b" d="m197 279 5 1-3 5-1-3h-2z"/><path fill="#261c18" d="M204 272h2c.25 2.313.25 2.313 0 5-2 1.813-2 1.813-4 3 .523-2.763 1.109-5.326 2-8"/><path fill="#352322" d="m251 247 4 1-2 9h-1z"/><path fill="#3b2a29" d="M64 189h4v2h2l-1 3c-1.937-.812-1.937-.812-4-2z"/><path fill="#342828" d="m97 133 2 1c-1.75 5.75-1.75 5.75-4 8l-1-6h3z"/><path fill="#0f0708" d="M188 125h2v8h-3z"/><path fill="#0f0503" d="m106 99 2 2h-2l-.875 2.438C104 106 104 106 102 107c.313-2.875.313-2.875 1-6z"/><path fill="#3e2e2f" d="M128 91c2.063.438 2.063.438 4 1l-6 5c.875-4.875.875-4.875 2-6"/><path fill="#3c2f2d" d="M169 80c1.255 3.766.37 5.372-1 9h-1v-8z"/><path fill="#2b2122" d="M87 73h2l1 7-3-2-3-1v-2h3z"/><path fill="#110705" d="m67 75 4 2-3 1-1 3h-3c1.875-4.875 1.875-4.875 3-6"/><path fill="#2e2522" d="M177 46a109 109 0 0 1-1 7l-2 1v-7c2-1 2-1 3-1"/><path fill="#0f0506" d="m357 31 4 1 1 4-3 1z"/><path fill="#0f0608" d="M268 22h2v2l5-1v2c-2.875.625-2.875.625-6 1l-2-2z"/><path fill="#271a1a" d="m371 19 8 1 1 3-9-2z"/><path fill="#392f33" d="M214 19h7v2l-5 2z"/><path fill="#352923" d="m333 13 1 2-1 2 2 1-8 2c1.23-3.688 2.939-4.724 6-7"/><path fill="#261b18" d="m253 520 2 4c-1 1-1 1-3.562 1.063L249 525z"/><path fill="#2f2623" d="M147 441h2q-.423 2.221-.875 4.438l-.492 2.496L147 450l-2 1z"/><path fill="#0d0503" d="m158 431-1 4-6 1v-2c4.385-3 4.385-3 7-3"/><path fill="#322422" d="m196 406 4 2-5 5-1-3h2z"/><path fill="#261a15" d="M189 399v2l-8 2c3.5-4 3.5-4 8-4"/><path fill="#1c1212" d="M49 388c1.255 3.766.37 5.372-1 9h-2c.75-6.75.75-6.75 3-9"/><path fill="#393231" d="m245 164 10 2v1l-3.875.188-2.18.105L247 167z"/><path fill="#2d231e" d="M309 165q3.012.43 6 1l-5 4-2-4z"/><path fill="#362b29" d="m229 159 10 2-4 1v2h-2v-3z"/><path fill="#110903" d="M313 143h2v6l-4-1z"/><path fill="#392f2e" d="M189 141h3c1.075 2.652 2.095 5.284 3 8h-2c-4-5.412-4-5.412-4-8"/><path fill="#33282c" d="M71 92c0 3.517-.824 4.371-3 7l-3-1 1-3h2c1.625-1.458 1.625-1.458 3-3"/><path fill="#352725" d="M395 64h3v3l2 1-4 1z"/><path fill="#13080c" d="M115 54v5l-1-3-5 4-1-2c2.048-2.243 3.691-4 7-4"/><path fill="#312524" d="M213 51h4c-1.75 3.875-1.75 3.875-4 5v-2l-2-1z"/><path fill="#3e3230" d="M365 42v5a56.5 56.5 0 0 1-7-4c4.75-1 4.75-1 7-1"/><path fill="#1b1314" d="m322 37 1 6c-1.937-.812-1.937-.812-4-2l-1-3c2-1 2-1 4-1"/></svg>